<svg width="291" height="331" viewBox="0 0 291 331" fill="none" xmlns="http://www.w3.org/2000/svg">
<path d="M53.7803 65.2754L232.173 110.039" stroke="#121212" stroke-opacity="0.5" stroke-width="2" stroke-linecap="round"/>
<path d="M65.3867 234.325L236.593 164.616" stroke="#121212" stroke-opacity="0.5" stroke-width="2" stroke-linecap="round"/>
<path d="M105.136 156.534L225.798 137.429" stroke="#121212" stroke-opacity="0.5" stroke-width="2" stroke-linecap="round"/>
<path d="M134.01 268.082L248.356 193.955" stroke="#121212" stroke-opacity="0.5" stroke-width="2" stroke-linecap="round"/>
<path d="M218.746 273.219L266.101 215.132" stroke="#121212" stroke-opacity="0.5" stroke-width="2" stroke-linecap="round"/>
<path d="M52.996 71.2204C56.7561 69.6894 58.5632 65.4002 57.0322 61.6401C55.5012 57.8799 51.2119 56.0729 47.4518 57.6039C43.6917 59.1349 41.8847 63.4241 43.4157 67.1843C44.9466 70.9444 49.2359 72.7514 52.996 71.2204Z" fill="#FF7154" stroke="#121212"/>
<path d="M261.15 230.601C264.106 229.397 265.527 226.024 264.324 223.067C263.12 220.11 259.746 218.689 256.79 219.893C253.833 221.097 252.412 224.47 253.616 227.427C254.819 230.384 258.193 231.805 261.15 230.601Z" fill="#FF7154" stroke="#121212"/>
<path d="M200.151 126.59C201.903 125.876 202.745 123.877 202.031 122.125C201.318 120.373 199.319 119.531 197.567 120.244C195.815 120.958 194.973 122.957 195.686 124.709C196.4 126.461 198.398 127.303 200.151 126.59Z" fill="#FF7154" stroke="#121212"/>
<path d="M162.004 155.041C165.764 153.51 167.571 149.221 166.04 145.461C164.509 141.701 160.22 139.894 156.46 141.425C152.7 142.956 150.892 147.245 152.423 151.005C153.954 154.765 158.244 156.572 162.004 155.041Z" fill="#0797F2" stroke="#121212"/>
<path d="M170.175 277.816C171.927 277.102 172.769 275.103 172.056 273.351C171.342 271.599 169.344 270.757 167.592 271.47C165.839 272.184 164.997 274.183 165.711 275.935C166.424 277.687 168.423 278.529 170.175 277.816Z" fill="#0797F2" stroke="#121212"/>
<path d="M133.73 65.4743C137.491 63.9433 139.298 59.6541 137.767 55.894C136.236 52.1338 131.946 50.3268 128.186 51.8578C124.426 53.3888 122.619 57.6781 124.15 61.4382C125.681 65.1983 129.97 67.0053 133.73 65.4743Z" fill="white" stroke="#121212"/>
<path d="M218.258 202.29C222.018 200.759 223.825 196.47 222.294 192.71C220.763 188.95 216.474 187.143 212.714 188.674C208.953 190.205 207.146 194.494 208.677 198.254C210.208 202.014 214.498 203.821 218.258 202.29Z" fill="#FDFBF9" stroke="#121212"/>
<path d="M242.748 272.848C244.501 272.135 245.343 270.136 244.629 268.384C243.916 266.632 241.917 265.79 240.165 266.503C238.413 267.217 237.571 269.215 238.284 270.968C238.997 272.72 240.996 273.562 242.748 272.848Z" fill="#FDFBF9" stroke="#121212"/>
<path d="M112.693 224.08C116.453 222.549 118.26 218.26 116.729 214.5C115.198 210.74 110.909 208.933 107.149 210.464C103.389 211.995 101.582 216.284 103.113 220.044C104.644 223.804 108.933 225.611 112.693 224.08Z" fill="white" stroke="#121212"/>
</svg>
