<svg width="126" height="275" viewBox="0 0 126 275" fill="none" xmlns="http://www.w3.org/2000/svg">
<path d="M118.004 161.04C121.764 159.509 123.571 155.22 122.04 151.46C120.509 147.7 116.22 145.893 112.46 147.424C108.7 148.955 106.892 153.244 108.423 157.004C109.954 160.764 114.244 162.571 118.004 161.04Z" fill="#0797F2" stroke="#121212"/>
<path d="M19.0048 17.0403C22.7649 15.5093 24.572 11.22 23.041 7.45988C21.51 3.69977 17.2207 1.89271 13.4606 3.4237C9.70051 4.95469 7.89346 9.24397 9.42445 13.0041C10.9554 16.7642 15.2447 18.5712 19.0048 17.0403Z" fill="#FF6F00" stroke="#121212"/>
<path d="M13.0038 271.04C16.764 269.509 18.571 265.22 17.04 261.46C15.509 257.7 11.2198 255.893 7.45965 257.424C3.69954 258.955 1.89247 263.244 3.42346 267.004C4.95445 270.764 9.24374 272.571 13.0038 271.04Z" fill="white" stroke="#121212"/>
</svg>
